<?xml version="1.0" encoding="utf-8"?>
<!-- Generator: Adobe Illustrator 25.0.0, SVG Export Plug-In . SVG Version: 6.00 Build 0)  -->
<svg version="1.1" id="Camada_1" xmlns="http://www.w3.org/2000/svg" xmlns:xlink="http://www.w3.org/1999/xlink" x="0px" y="0px"
	 viewBox="0 0 595.28 841.89" style="enable-background:new 0 0 595.28 841.89;" xml:space="preserve">
<style type="text/css">
	.st0{fill:#FEFEFE;}
	.st1{fill:#020203;}
	.st2{fill:#FFFFFF;}
</style>
<g>
	<g>
		<path class="st0" d="M-284.28,403.83c0-178.27,0.01-356.54-0.09-534.82c0-3.65,0.66-4.66,4.53-4.65
			c356.89,0.11,713.79,0.11,1070.68-0.02c4.21,0,4.78,1.04,4.78,4.94c-0.11,356.71-0.11,713.42,0,1070.13c0,3.94-0.63,4.92-4.8,4.92
			c-356.73-0.13-713.45-0.13-1070.18,0.01c-4.42,0-5.03-1.16-5.02-5.2C-284.27,760.71-284.28,582.27-284.28,403.83z"/>
		<path class="st1" d="M489.8,525.41c2.63-0.69,4.22-2.01,5.74-3.52c10.59-10.54,21.3-20.96,31.1-32.24
			c10.27-11.83,20.93-23.35,30.23-36.01c0.73-0.99,1.54-2.61,3.04-2.17c1.69,0.5,2.28,2.44,2.55,3.9c0.89,4.78,1.69,9.62,2.05,14.46
			c1,13.66,1.54,27.27,0.24,41.01c-1.29,13.63-3.84,26.91-8.27,39.75c-5.94,17.2-14.52,32.91-26.45,46.94
			c-12.77,15.03-28.56,25.48-46.43,32.86c-9.05,3.74-18.72,5.8-28.6,7.04c-10.12,1.27-20.29,1.48-30.24,0.59
			c-21.08-1.87-42.03-5.03-60.02-17.75c-6.33-4.48-11.37-10.23-16.71-15.79c-11.32-11.8-21.89-24.33-34.42-35.02
			c-7.72-6.59-15.01-13.72-23.16-19.81c-15.34-11.45-31-22.41-49.16-29.11c-14.36-5.29-29.1-8.31-44.46-7.22
			c-10.87,0.78-21.16,3.92-31.05,8.42c-0.36,0.16-0.53,0.74-0.95,1.39c19.47,0.97,37.87,5.38,54.93,14.27
			c10.94,5.7,20.61,13.32,30.07,21.33c10.77,9.12,19.77,19.83,28.88,30.38c14.3,16.57,28.06,33.6,43.97,48.69
			c24.76,23.49,53.58,39.61,86.9,47.48c13.96,3.29,28.02,5.8,42.42,6.02c0.98,0.01,2.42-0.65,2.62,1.31
			c0.17,1.68-0.42,2.89-1.72,3.84c-7.14,5.25-14.28,10.48-21.89,15.1c-18.33,11.11-38.19,18.37-58.85,23.31
			c-11.65,2.79-23.56,4.48-35.58,5.57c-16.11,1.46-32.21,1.07-48.25,0.6c-15.4-0.45-30.67-3.12-45.82-6.29
			c-20.5-4.28-40.37-10.49-59.67-18.53c-19.08-7.95-36.84-18.29-53.8-30.07c-10.91-7.58-20.97-16.27-30.31-25.58
			c-13.28-13.23-25.11-27.87-34.87-43.92c-10.53-17.31-19.29-35.52-25.39-54.93c-5.28-16.84-9.17-33.91-10.92-51.54
			c-1.18-11.84-2.46-23.66-1.73-35.51c0.85-13.86,1.84-27.71,3.67-41.53c3.53-26.66,9.92-52.51,19.18-77.7
			c7.72-21,17.68-40.86,29.3-60.03c17.32-28.56,38.93-53.47,63.34-75.94c18.99-17.48,39.72-32.87,62.01-46
			c9.94-5.86,19.67-12.17,30.63-16.14c15.88-5.75,34.15,1.24,43.28,13.69c7,9.54,15.32,18.2,22.34,27.82
			c1.59,2.18,3.41,0.73,4.67,0.24c26.61-10.33,53.78-19.01,80.89-27.86c38.32-12.51,77.22-23.04,116.34-32.67
			c21.9-5.39,44.08-9.73,66.24-14.02c10.08-1.95,20.37-2.93,30.26,1.8c4.96,2.37,9.23,5.52,12.71,9.69
			c5.99,7.17,11.97,14.17,15.14,23.41c3.1,9.03,3.31,17.9,1.68,26.93c-2.75,15.25-5.63,30.49-8.99,45.61
			c-4.18,18.85-8.71,37.62-13.43,56.34c-6.52,25.83-14.69,51.17-23.48,76.31c-1.21,3.47-2.72,6.84-3.91,10.32
			c-0.49,1.42-1.1,2.28-2.68,2.4c-1.78,0.13-1.68-1.52-2.05-2.33c-9.83-21.95-19.71-43.88-25.38-67.4
			c-0.36-1.48-1.03-2.88-1.71-4.76c-6.43,9.49-10.68,19.52-15.08,29.38c-6.21,13.88-11.5,28.17-17.09,42.32
			c-0.39,0.98-0.31,1.86-1.7,1.82c-1.2-0.04-1.85-0.24-2.63-1.48c-5.94-9.44-10.13-19.73-14.64-29.84
			c-3.98-8.91-7.19-18.15-10.11-28.23c-4.84,4.45-7.26,9.67-9.42,14.67c-5.61,12.94-10.68,26.12-13.63,40.01
			c-1.15,5.44-2.74,6.1-6.84,2.31c-9.15-8.46-18.91-16.18-28.4-24.22c-7.05-5.98-14.33-11.69-21.28-17.34
			c-1.92,0.6-1.37,1.78-1.39,2.65c-0.29,14.05-2.14,27.93-3.85,41.85c-1.25,10.17-2.79,20.3-4.2,30.45
			c-0.15,1.1,0.96,2.86-1.28,3.11c-1.57,0.18-2.66-0.27-3.69-1.74c-9.35-13.28-20.03-25.43-31.29-37.13
			c-9.36-9.72-20.55-12.24-33.05-8.9c-29.05,7.76-57.41,17.54-83.93,31.9c-13.5,7.31-26.58,15.41-38.02,25.81
			c-1.06,0.96-3.02,0.77-3.4,3.39c6.71-1.62,13.13-3.22,19.58-4.71c18.06-4.17,36.08-8.48,54.36-11.69
			c15.75-2.77,28.54,2.65,40.01,12.79c1.46,1.29,3.23,2.25,4.54,3.66c1.64,1.76,2.99,1.83,5.13,0.7
			c12.36-6.53,25.51-11.27,38.35-16.73c5.07-2.16,5.27-1.63,5.82,4.03c1.49,15.32,1.59,30.75,3.76,46.03
			c0.89,6.26,1.05,12.65,2.05,18.95c0.48,3.05,1.14,3.4,3.56,1.69c8.89-6.26,17.55-12.83,25.86-19.85
			c8.74-7.39,17.48-14.77,26.2-22.18c2.44-2.07,3.48-0.24,3.39,1.62c-0.32,6.75,0.34,13.46-0.61,20.29
			c-0.96,6.92-0.92,14.03-2.28,20.97c-1.15,5.87-2.14,11.76-3.25,17.64c-0.13,0.71-1.33,1.32-0.39,2.1
			c0.84,0.71,1.77,0.34,2.71-0.17c11.64-6.2,23.67-11.63,35.23-18.04c10.56-5.86,21.22-11.49,31.24-18.26
			c2.18-1.48,3.34-0.72,3.5,2.18c0.48,8.45-0.88,16.77-2.24,24.97C495.44,501.49,493.63,513.42,489.8,525.41z"/>
		<path class="st1" d="M304.56,130.36c16.81,0.52,29.75,8.94,40.02,22.42c2.26,2.97,0.33,3.98-1.66,4.43
			c-10.86,2.44-20.34,7.71-29.46,13.81c-2.48,1.65-4.74,1.94-6.64-0.96c-7.3-11.15-17.44-19.47-27.86-27.43
			c-1.48-1.13-2.46-1.88-2.35-3.75c0.12-2.08,2.01-1.93,3.18-2.4C287.57,133.38,295.43,130.48,304.56,130.36z"/>
		<path class="st2" d="M136.27,339.44c4.74-16.42,12.3-29.76,21.21-42.32c8.14-11.47,17.32-22.18,27.69-31.67
			c21.73-19.89,45.22-37.05,74.1-45.35c4.2-1.21,8.41-2.22,12.74-2.69c2.34-0.25,2.88,0.32,2.8,3.23
			c-0.41,14.34-0.29,28.67,1.64,42.98c1.17,8.69,2.03,17.39,4.11,25.93c0.8,3.26-1.7,3.23-3.57,2.75
			c-6.38-1.66-12.83-0.89-19.24-0.88c-18.04,0.03-35.05,5.07-51.93,10.88c-14.78,5.09-28.75,11.98-42.48,19.26
			C154.26,326.36,145.64,332.14,136.27,339.44z"/>
		<path class="st2" d="M540.13,164.51c7.98-1.95,14.43-3.64,20.93-5.07c5.35-1.18,10.76-2.15,16.18-3.01
			c5.17-0.82,9.18,2.34,9.28,7.46c0.16,8.32,0.11,16.64-0.01,24.96c-0.02,1.73-0.27,4.52-1.22,4.92c-1.46,0.61-2.96-1.39-4.41-2.47
			c-12.14-9.04-24.63-17.55-37.81-25.04C542.49,165.93,541.92,165.58,540.13,164.51z"/>
		<path class="st1" d="M255.62,253.67c0.49,3.52-0.77,7.8,0.89,12.02c0.72,1.82-0.21,3.31-2.7,3.73
			c-12.78,2.13-24.82,6.41-35.89,13.2c-1.32,0.81-2.81,1.13-3.67,0.55c-1.32-0.89-0.8-2.78-0.47-4.15
			c1.69-7.11,4.84-13.72,9.28-19.36c7.17-9.12,15.79-16.53,27.74-18.98c3.54-0.73,5,0.16,4.84,3.81
			C255.52,247.32,255.62,250.15,255.62,253.67z"/>
	</g>
</g>
</svg>
