<?xml version="1.0" encoding="UTF-8"?>
<!DOCTYPE svg PUBLIC "-//W3C//DTD SVG 1.1//EN" "http://www.w3.org/Graphics/SVG/1.1/DTD/svg11.dtd">
<!-- Creator: CorelDRAW 2017 -->
<svg xmlns="http://www.w3.org/2000/svg" xml:space="preserve" width="210mm" height="297mm" version="1.1" style="shape-rendering:geometricPrecision; text-rendering:geometricPrecision; image-rendering:optimizeQuality; fill-rule:evenodd; clip-rule:evenodd"
viewBox="0 0 21000 29700"
 xmlns:xlink="http://www.w3.org/1999/xlink">
 <defs>
  <style type="text/css">
   <![CDATA[
    .str0 {stroke:white;stroke-width:20;stroke-miterlimit:22.9256}
    .fil0 {fill:white}
   ]]>
  </style>
 </defs>
 <g id="Camada_x0020_1">
  <metadata id="CorelCorpID_0Corel-Layer"/>
  <path class="fil0 str0" d="M9594.54 94.55c7967.89,0 14427.15,6459.26 14427.15,14427.15 0,7967.89 -6459.26,14427.15 -14427.15,14427.15 -7967.89,0 -14427.15,-6459.26 -14427.15,-14427.15 0,-7967.89 6459.26,-14427.15 14427.15,-14427.15zm6958.48 5685.69c260.6,-63.68 471.24,-118.87 683.52,-165.58 174.71,-38.53 351.4,-70.21 528.4,-98.3 168.83,-26.78 299.8,76.42 303.06,243.63 5.22,271.71 3.6,543.42 -0.32,815.13 -0.66,56.5 -8.81,147.61 -39.84,160.68 -20.71,8.65 -1218.6,-807.37 -1378.8,-898.41 -18.95,-10.78 -37.56,-22.2 -96.02,-57.15zm-7693.12 -1115.26c548.98,16.98 971.56,291.96 1306.96,732.18 73.8,96.99 10.77,129.98 -54.22,144.68 -354.65,79.68 -664.24,251.79 -962.09,450.99 -80.99,53.89 -154.8,63.36 -216.84,-31.35 -238.41,-364.13 -569.55,-635.84 -909.84,-895.79 -48.33,-36.9 -80.33,-61.4 -76.74,-122.47 7.71,-133.72 780.98,-276.5 912.77,-278.24zm-5495.93 6828.04c154.81,-536.24 401.69,-971.89 692.67,-1382.06 265.84,-374.58 565.63,-724.35 904.29,-1034.27 709.64,-649.55 1476.77,-1209.95 2419.91,-1481.02 137.17,-39.52 274.65,-72.5 416.06,-87.85 76.42,-8.16 94.06,10.45 91.44,105.49 -13.38,468.31 -9.47,936.29 53.57,1403.62 38.2,283.79 66.29,567.92 134.22,846.81 26.12,106.46 -55.52,105.49 -116.59,89.81 -208.35,-54.22 -418.99,-29.07 -628.33,-28.74 -589.14,0.98 -1144.65,165.58 -1695.9,355.31 -482.68,166.23 -938.9,391.24 -1387.29,628.98 -296.54,156.76 -578.04,345.51 -884.05,583.92zm3897.67 -2801.04c16.01,114.96 13.38,269.89 24.73,423.02 23.51,59.44 -163.48,108.22 -244.8,121.94 -417.37,69.56 -649.59,178.74 -1011.11,400.48 -43.11,26.45 -91.77,36.9 -119.86,17.96 -43.11,-29.07 -26.12,-90.79 -15.34,-135.53 55.19,-232.19 158.06,-448.06 303.06,-632.25 234.16,-297.83 515.66,-539.83 905.92,-619.84 115.61,-23.84 163.29,5.22 158.06,124.43 -3.92,92.41 -0.66,184.84 -0.66,299.79zm7647.73 8874.35c85.89,-22.53 137.82,-65.64 187.45,-114.96 345.85,-344.21 695.61,-684.5 1015.65,-1052.88 335.39,-386.33 683.52,-762.55 987.24,-1175.99 23.84,-32.33 50.29,-85.23 99.27,-70.87 55.2,16.33 74.46,79.69 83.28,127.37 29.07,156.1 55.19,314.16 66.95,472.22 32.66,446.1 50.3,890.57 7.84,1339.28 -42.13,445.12 -125.41,878.82 -270.08,1298.14 -193.99,561.7 -474.19,1074.75 -863.79,1532.94 -417.03,490.84 -932.7,832.11 -1516.29,1073.13 -295.55,122.14 -611.35,189.41 -934.01,229.9 -330.49,41.48 -662.62,48.34 -987.56,19.27 -688.42,-61.07 -1372.59,-164.27 -1960.1,-579.68 -206.73,-146.3 -371.32,-334.08 -545.71,-515.66 -369.68,-385.35 -714.87,-794.55 -1124.07,-1143.66 -252.11,-215.22 -490.19,-448.07 -756.35,-646.95 -500.97,-373.93 -1012.38,-731.85 -1605.44,-950.66 -468.97,-172.76 -950.34,-271.39 -1451.95,-235.78 -205.48,14.74 -937.79,154.32 -1045.04,320.37 635.84,31.68 1236.74,175.7 1793.87,466.02 357.28,186.15 673.07,435.01 982.01,696.59 351.72,297.83 645.64,647.59 943.14,992.13 467,541.14 916.37,1097.29 1435.95,1590.09 808.59,767.13 1749.78,1293.56 2837.93,1550.58 455.9,107.44 915.07,189.42 1385.33,196.6 32.01,0.33 79.03,-21.23 85.57,42.78 5.55,54.87 -13.72,94.38 -56.17,125.41 -233.18,171.45 -466.35,342.25 -714.87,493.13 -598.62,362.82 -1247.19,599.92 -1921.89,761.24 -380.46,91.11 -769.42,146.3 -1161.95,181.91 -526.11,47.68 -1051.9,34.94 -1575.73,19.6 -502.92,-14.7 -1001.6,-101.9 -1496.37,-205.42 -669.48,-139.78 -1318.38,-342.58 -1948.67,-605.14 -623.1,-259.63 -1203.1,-597.31 -1756.97,-982.01 -356.3,-247.54 -684.83,-531.34 -989.85,-835.38 -433.69,-432.06 -820.03,-910.16 -1138.77,-1434.32 -343.88,-565.29 -629.96,-1159.99 -829.17,-1793.87 -172.44,-549.95 -299.47,-1107.41 -356.62,-1683.16 -38.54,-386.67 -80.34,-772.68 -56.5,-1159.67 27.76,-452.63 60.09,-904.93 119.85,-1356.27 115.29,-870.64 323.96,-1714.84 626.37,-2537.48 252.12,-685.81 577.39,-1334.38 956.87,-1960.43 565.63,-932.7 1271.35,-1746.19 2068.52,-2480 620.17,-570.85 1297.15,-1073.45 2025.09,-1502.25 324.62,-191.38 642.38,-397.44 1000.3,-527.09 518.61,-187.79 1115.26,40.49 1413.42,447.08 228.6,311.55 500.31,594.36 729.57,908.53 51.92,71.19 111.36,23.84 152.51,7.84 869.01,-337.35 1756.31,-620.82 2641.66,-909.84 1251.43,-408.54 2521.82,-752.42 3799.38,-1066.92 715.2,-176.03 1439.54,-317.76 2163.23,-457.86 329.19,-63.68 665.23,-95.68 988.22,58.79 161.98,77.4 301.42,180.27 415.07,316.45 195.62,234.15 390.91,462.75 494.44,764.51 101.24,294.91 108.1,584.58 54.87,879.47 -89.81,498.02 -183.86,995.72 -293.59,1489.51 -136.51,615.59 -284.45,1228.57 -438.59,1839.92 -212.93,843.55 -479.74,1671.09 -766.8,2492.1 -39.52,113.32 -88.83,223.38 -127.7,337.02 -16.01,46.37 -35.93,74.46 -87.52,78.38 -177.26,12.95 -828.93,-2093.29 -951.63,-2432.65 -209.98,309.91 -348.78,637.47 -492.47,959.47 -202.8,453.29 -375.56,919.97 -558.12,1382.06 -12.73,32 -10.12,60.75 -55.51,59.44 -39.19,-1.3 -60.41,-7.84 -85.89,-48.33 -193.99,-308.29 -330.82,-644.34 -478.1,-974.5 -129.98,-290.97 -234.82,-592.73 -330.17,-921.91 -158.06,145.32 -237.09,315.79 -307.63,479.08 -183.22,422.59 -348.78,853.01 -445.12,1306.62 -37.56,177.66 -89.48,199.21 -223.38,75.44 -298.82,-276.28 -617.56,-528.4 -927.47,-790.96 -230.24,-195.29 -467.99,-381.76 -694.96,-566.28 -73.96,23.11 -150.21,1282.95 -171.13,1453.26 -17.76,144.51 -60.42,1082.61 -186.93,1096.73 -51.28,5.88 -78.91,-9.56 -112.54,-57.57 -305.35,-433.7 -654.13,-830.48 -1021.85,-1212.57 -305.68,-317.43 -671.11,-399.73 -1079.33,-290.65 -948.7,253.42 -1874.86,572.81 -2740.94,1041.77 -189,102.34 -1329.66,794.84 -1352.67,953.59 219.13,-52.9 428.79,-105.15 639.43,-153.82 589.79,-136.18 1178.28,-276.93 1775.27,-381.76 514.35,-90.46 932.04,86.55 1306.62,417.69 47.68,42.13 105.49,73.48 148.26,119.53 53.57,57.48 97.65,59.77 167.53,22.86 403.65,-213.25 833.1,-368.05 1252.41,-546.36 165.58,-70.54 172.11,-53.23 190.08,131.61 48.65,500.31 51.92,1004.22 122.78,1503.22 29.07,204.44 34.29,413.12 66.95,618.86 15.68,99.61 37.24,111.04 116.27,55.2 290.32,-204.44 573.13,-419 844.52,-648.26 285.43,-241.33 570.85,-482.35 855.63,-724.34 79.68,-67.6 113.65,-7.85 110.7,52.9 -10.45,220.44 11.1,439.58 -19.92,662.62 -31.35,225.99 -30.05,458.18 -74.45,684.83 -37.56,191.7 -69.89,384.05 -106.14,576.08 -4.25,23.19 -43.43,43.11 -12.74,68.58 27.43,23.19 57.81,11.1 88.5,-5.56 380.14,-202.47 773.01,-379.8 1150.53,-589.14 344.86,-191.38 692.99,-375.24 1020.22,-596.33 71.19,-48.33 109.08,-23.51 114.3,71.19 15.67,275.95 -28.74,547.66 -73.15,815.46 -66.3,387.63 -125.41,777.23 -250.49,1168.8z"/>
 </g>
</svg>
